HIERARCHY
ROOT Hips
{
	OFFSET 0.000000 0.000000 0.000000
	CHANNELS 6 Xposition Yposition Zposition Zrotation Yrotation Xrotation 
	JOINT LHipJoint
	{
		OFFSET 0.000000 0.000000 0.000000
		CHANNELS 3 Zrotation Yrotation Xrotation
		JOINT LeftUpLeg
		{
			OFFSET 1.363060 -1.794630 0.839290
			CHANNELS 3 Zrotation Yrotation Xrotation
			JOINT LeftLeg
			{
				OFFSET 2.448110 -6.726130 0.000000
				CHANNELS 3 Zrotation Yrotation Xrotation
				JOINT LeftFoot
				{
					OFFSET 2.562200 -7.039590 0.000000
					CHANNELS 3 Zrotation Yrotation Xrotation
					JOINT LeftToeBase
					{
						OFFSET 0.157640 -0.433110 2.322550
						CHANNELS 3 Zrotation Yrotation Xrotation
						End Site
						{
							OFFSET 0.000000 0.000000 0.000000
						}
					}
				}
			}
		}
	}
	JOINT RHipJoint
	{
		OFFSET 0.000000 0.000000 0.000000
		CHANNELS 3 Zrotation Yrotation Xrotation
		JOINT RightUpLeg
		{
			OFFSET -1.305520 -1.794630 0.839290
			CHANNELS 3 Zrotation Yrotation Xrotation
			JOINT RightLeg
			{
				OFFSET -2.542530 -6.985550 0.000000
				CHANNELS 3 Zrotation Yrotation Xrotation
				JOINT RightFoot
				{
					OFFSET -2.568260 -7.056230 0.000000
					CHANNELS 3 Zrotation Yrotation Xrotation
					JOINT RightToeBase
					{
						OFFSET -0.164730 -0.452590 2.363150
						CHANNELS 3 Zrotation Yrotation Xrotation
						End Site
						{
							OFFSET 0.000000 0.000000 0.000000
						}
					}
				}
			}
		}
	}
}
MOTION
Frames: 25
Frame Time: 0.008333
-1.437342 16.897803 1.201861 -166.426120 83.386760 -148.896892 -11.786070 4.561167 2.357489 -4.266483 1.121357 -2.920057 -0.778829 1.190432 25.985044 0.194918 -1.780992 5.862784 -0.355400 -0.000000 -61.580600 8.739813 -0.976902 1.368693 11.363199 -9.931688 -40.870650 3.975537 -0.920933 16.287450 0.984788 5.225433 6.817606 0.778800 -0.000000 -49.625800
-1.264405 16.845576 1.194119 -162.452847 83.267497 -145.289803 -11.995191 4.581335 2.187077 -3.441315 1.885235 -3.165711 -0.671053 1.328616 28.060873 0.222917 -1.913966 5.852509 -0.404699 0.000000 -59.496400 8.607166 -1.051302 1.089861 11.912922 -9.965019 -41.581561 3.825957 -1.370537 20.424736 0.950885 5.474880 5.014242 0.748799 0.000000 -46.741800
-1.098902 16.802052 1.183421 -158.677649 83.015240 -141.889350 -12.222001 4.564163 1.999019 -2.554603 2.567522 -3.530149 -0.549294 1.476087 30.316232 0.269891 -1.824857 5.797824 -0.411800 -0.000000 -56.582500 8.463893 -1.130135 0.804669 12.479958 -10.012006 -41.917761 3.680134 -1.722289 23.899727 0.891704 5.525643 3.388538 0.670100 0.000000 -44.818200
-0.939957 16.768228 1.170556 -155.476677 82.612303 -139.051224 -12.453339 4.508767 1.810436 -1.635233 3.124941 -4.039185 -0.414997 1.628596 32.725278 0.338923 -1.449288 5.671695 -0.364000 0.000000 -52.934800 8.314848 -1.221439 0.522228 13.070164 -10.115340 -41.919747 3.558288 -1.979904 26.658235 0.811130 5.385836 1.949340 0.561400 -0.000000 -43.997000
-0.786376 16.744409 1.156943 -153.216554 82.060414 -137.127784 -12.665476 4.419711 1.639416 -0.743140 3.508031 -4.696957 -0.271086 1.781778 35.243142 0.433843 -0.727466 5.454098 -0.250500 -0.000000 -48.729500 8.176083 -1.322511 0.244633 13.658761 -10.335575 -41.656887 3.469593 -2.158460 28.736466 0.713813 5.086592 0.678666 0.441100 -0.000001 -44.213200
-0.637104 16.730307 1.143499 -151.966812 81.371815 -136.184109 -12.846776 4.303265 1.497192 0.087062 3.697757 -5.497270 -0.121377 1.933118 37.821573 0.557579 0.358560 5.118503 -0.070800 -0.000001 -44.089100 8.055648 -1.428970 -0.029315 14.226847 -10.704117 -41.178139 3.415723 -2.270992 30.190944 0.601726 4.645273 -0.438038 0.319700 -0.000001 -45.247500
-0.490725 16.725291 1.131965 -151.822371 80.571161 -136.308127 -12.974380 4.168742 1.396692 0.777770 3.658470 -6.418978 0.031327 2.077013 40.394516 0.715372 1.825886 4.669521 0.171500 -0.000000 -39.353399 7.974970 -1.527881 -0.300559 14.713376 -11.261425 -40.556406 3.391267 -2.333809 31.124906 0.479189 4.105448 -1.426338 0.207700 0.000000 -46.763700
-0.346226 16.728542 1.122491 -152.558787 79.670195 -137.274950 -13.051518 4.020877 1.341247 1.319864 3.400882 -7.445063 0.184238 2.209708 42.910678 0.908991 3.627750 4.097374 0.458000 0.000000 -34.708100 7.933001 -1.616628 -0.568408 15.102384 -11.991990 -39.823000 3.390278 -2.356081 31.615119 0.347480 3.480727 -2.289930 0.108000 -0.000001 -48.408400
-0.202626 16.739093 1.115313 -153.989524 78.680235 -138.896045 -13.079025 3.863498 1.332627 1.695773 2.933601 -8.551475 0.334851 2.326024 45.316465 1.138738 5.702121 3.408819 0.765199 0.000000 -30.360800 7.931826 -1.691767 -0.830984 15.368823 -12.874707 -39.014465 3.404827 -2.348167 31.753022 0.209965 2.798082 -3.029809 0.022800 0.000000 -49.875500
-0.059139 16.755975 1.110290 -155.918849 77.610478 -140.974898 -13.060954 3.698704 1.369068 1.898471 2.274820 -9.712405 0.480297 2.421189 47.564854 1.401241 7.965078 2.614201 1.065100 -0.000000 -26.476200 7.970716 -1.751935 -1.085887 15.496022 -13.876607 -38.161721 3.426870 -2.320218 31.630967 0.071061 2.086659 -3.640823 -0.047600 0.000000 -50.973100
0.084675 16.778259 1.106673 -158.120830 76.469439 -143.284872 -13.008454 3.527133 1.445353 1.946431 1.459204 -10.908493 0.616881 2.492932 49.621109 1.687820 10.309023 1.719680 1.325800 0.000001 -23.092200 8.041398 -1.799788 -1.328495 15.489920 -14.942799 -37.283107 3.449360 -2.279744 31.324460 -0.065693 1.363662 -4.109245 -0.106100 0.000001 -51.651700
0.229027 16.805162 1.103428 -160.402828 75.270650 -145.632349 -12.932504 3.349433 1.554415 1.865237 0.527870 -12.124173 0.740628 2.541029 51.458935 1.985775 12.620189 0.734385 1.517100 -0.000001 -20.196300 8.134799 -1.838864 -1.553942 15.366331 -16.015341 -36.393594 3.466358 -2.233183 30.900366 -0.197235 0.642261 -4.422951 -0.157400 0.000000 -51.976900
0.373730 16.836055 1.099431 -162.604906 74.033653 -147.859516 -12.843759 3.166799 1.687643 1.687708 -0.473171 -13.347363 0.847742 2.567687 53.061097 2.279714 14.786493 -0.329349 1.614200 -0.000000 -17.737400 8.241034 -1.873286 -1.757829 15.151042 -17.036245 -35.500152 3.473381 -2.184741 30.409235 -0.321620 -0.070752 -4.573521 -0.207001 0.000000 -52.088001
0.518479 16.870432 1.093622 -164.620456 72.781240 -149.863746 -12.749782 2.980902 1.835575 1.444855 -1.497692 -14.568438 0.935157 2.576295 54.418738 2.553784 16.708451 -1.454776 1.602200 0.000001 -15.650500 8.352415 -1.906831 -1.937783 14.872483 -17.960876 -34.607342 3.467844 -2.137543 29.890008 -0.437411 -0.768721 -4.560280 -0.260199 -0.000000 -52.149800
0.662723 16.907948 1.085031 -166.375646 71.536697 -151.578417 -12.656897 2.793608 1.988822 1.169388 -2.501699 -15.780844 1.000908 2.571131 55.530959 2.793320 18.303698 -2.619526 1.479100 0.000000 -13.880600 8.461740 -1.943516 -2.093159 14.562679 -18.756595 -33.711323 3.449023 -2.092324 29.360622 -0.544477 -1.451201 -4.386441 -0.322400 -0.000000 -52.318801
0.805896 16.948280 1.072963 -167.835622 70.318800 -152.978562 -12.569147 2.606598 2.138653 0.889012 -3.447440 -16.979841 1.044126 2.556355 56.404210 2.986484 19.513570 -3.798908 1.256399 -0.000000 -12.376300 8.563730 -1.986727 -2.225868 14.250830 -19.409951 -32.805233 3.418071 -2.048781 28.825734 -0.642886 -2.116659 -4.060852 -0.397600 -0.000000 -52.712100
0.947446 16.991153 1.056981 -168.995496 69.139614 -154.070717 -12.489140 2.421581 2.278032 0.624809 -4.306628 -18.161416 1.064975 2.535599 57.049375 3.125211 20.306093 -4.963609 0.958400 -0.000000 -11.106599 8.654420 -2.038986 -2.339409 13.960398 -19.922457 -31.875536 3.377170 -2.004987 28.273924 -0.733526 -2.767726 -3.594492 -0.489500 0.000000 -53.394900
1.087006 17.036235 1.037068 -169.883568 68.003172 -154.894242 -12.416905 2.240156 2.402400 0.383894 -5.064220 -19.321182 1.064448 2.511187 57.480234 3.205918 20.678820 -6.083213 0.618201 -0.000000 -10.054100 8.732777 -2.100728 -2.439226 13.701511 -20.315821 -30.910018 3.329400 -1.959163 27.690092 -0.816744 -3.402498 -3.003280 -0.600100 0.000000 -54.369800
1.224290 17.083170 1.013287 -170.522684 66.905584 -155.482917 -12.353763 2.063328 2.508725 0.175741 -5.710887 -20.456778 1.044258 2.485379 57.712214 3.228806 20.652256 -7.126528 0.271700 -0.000000 -9.234399 8.796357 -2.172676 -2.529379 13.484628 -20.605918 -29.886336 3.277412 -1.907364 27.043241 -0.894888 -4.032279 -2.301159 -0.732400 0.000000 -55.582600
1.359504 17.131387 0.986153 -170.980156 65.836503 -155.909529 -12.295820 1.892403 2.597890 -0.017069 -6.256024 -21.564301 1.006310 2.458049 57.759982 3.199209 20.276943 -8.072029 -0.050300 -0.000000 -8.623200 8.848810 -2.251765 -2.615706 13.297066 -20.833600 -28.800024 3.224151 -1.849026 26.323894 -0.967534 -4.649278 -1.511417 -0.885500 -0.000000 -56.931700
1.492983 17.180255 0.956237 -171.316555 64.782477 -156.237026 -12.239373 1.728513 2.672538 -0.213839 -6.714989 -22.640678 0.952925 2.428644 57.636064 3.126014 19.621544 -8.901702 -0.324900 -0.000000 -8.230300 8.893780 -2.334867 -2.702004 13.123671 -21.031174 -27.646008 3.171405 -1.783266 25.522636 -1.034786 -5.250001 -0.654452 -1.058100 -0.000000 -58.297800
1.625063 17.229115 0.923782 -171.563336 63.726844 -156.497596 -12.183178 1.571970 2.735720 -0.423339 -7.102818 -23.684532 0.886723 2.396940 57.350645 3.020221 18.762758 -9.608235 -0.540900 -0.000000 -8.057300 8.931941 -2.420778 -2.788453 12.958452 -21.207771 -26.414027 3.119596 -1.707937 24.623520 -1.098606 -5.844340 0.256006 -1.251500 0.000000 -59.562500
1.756593 17.277151 0.889383 -171.791310 62.655924 -156.755012 -12.119877 1.424343 2.793728 -0.681574 -7.448749 -24.691724 0.809881 2.360328 56.908785 2.895881 17.791325 -10.195811 -0.698200 0.000000 -8.090700 8.971151 -2.504959 -2.876984 12.774567 -21.396381 -25.123201 3.069173 -1.626268 23.650100 -1.155934 -6.409230 1.200512 -1.459300 -0.000001 -60.651200
1.888199 17.323598 0.853174 -172.027897 61.557322 -157.029673 -12.046094 1.286472 2.851444 -1.004858 -7.773715 -25.659677 0.724424 2.317313 56.312808 2.766071 16.787712 -10.678854 -0.805100 -0.000000 -8.315101 9.014362 -2.586265 -2.965634 12.563275 -21.599660 -23.785219 3.019334 -1.539902 22.617769 -1.205772 -6.936564 2.170896 -1.678100 0.000001 -61.533900
2.020527 17.367710 0.815064 -172.291359 60.422371 -157.331116 -11.958377 1.159379 2.913507 -1.408421 -8.096315 -26.584800 0.631834 2.266138 55.561005 2.642674 15.822323 -11.079377 -0.874300 0.000001 -8.703100 9.064459 -2.664244 -3.052068 12.318759 -21.818095 -22.421169 2.969374 -1.452174 21.555482 -1.245730 -7.409428 3.161985 -1.901900 0.000000 -62.236700
